<svg width="24" height="24" viewBox="0 0 24 24" fill="none" xmlns="http://www.w3.org/2000/svg">
<path d="M11.1011 23.793C18.2612 24.5244 23.4195 18.8272 23.9585 12.0905C24.228 8.85688 23.1886 5.70028 20.7634 3.54456C19.4545 2.3897 17.6067 1.27335 15.6821 0.811405C9.56134 -1.92175 2.09329 2.62074 0.399504 8.89544C-1.56375 16.094 3.97955 23.0616 11.1011 23.793ZM7.29013 18.9042C7.25163 18.7887 7.21314 18.6732 7.13615 18.5577C7.29013 18.7116 7.40561 18.8272 7.55959 18.9811C7.44411 18.9811 7.36712 18.9427 7.29013 18.9042ZM12.2944 4.27603C14.7197 6.8167 16.452 10.0888 19.2235 12.283C19.3005 12.4755 19.3775 12.7064 19.4161 12.9374C17.9532 13.1299 16.452 13.3223 14.9891 13.0913C14.7966 13.0528 14.6426 13.1298 14.5271 13.2453C14.4117 13.2838 14.2962 13.3993 14.2962 13.5533C14.3347 14.9777 14.4502 16.3635 14.5656 17.7877C12.9103 17.9032 11.1781 18.3267 9.52284 18.0187C8.56046 17.8262 9.75381 14.7851 9.59983 13.8612C9.67682 13.6687 9.59983 13.3608 9.33037 13.2838C8.63745 13.0913 7.86755 13.2068 7.13615 13.2453C6.82819 13.2453 6.48173 13.2453 6.17377 13.2838C7.90605 10.0888 9.36886 6.47019 12.2944 4.27603Z" fill="white"/>
</svg>
