<svg width="24" height="24" viewBox="0 0 24 24" fill="none" xmlns="http://www.w3.org/2000/svg">
<path d="M4.80499 3.74404C4.76482 3.71985 4.73159 3.68568 4.70852 3.64485C4.68545 3.60403 4.67333 3.55793 4.67333 3.51104C4.67333 3.46415 4.68545 3.41805 4.70852 3.37723C4.73159 3.3364 4.76482 3.30223 4.80499 3.27804L8.53599 1.04004C8.57712 1.01498 8.62418 1.00134 8.67233 1.00051C8.72049 0.999683 8.76799 1.0117 8.80996 1.03533C8.85192 1.05897 8.88683 1.09335 8.91109 1.13496C8.93535 1.17656 8.94809 1.22388 8.94799 1.27204V5.74904C8.94795 5.79716 8.93515 5.84441 8.91089 5.88597C8.88662 5.92753 8.85177 5.96191 8.80988 5.9856C8.768 6.00929 8.72057 6.02144 8.67245 6.02081C8.62434 6.02019 8.57725 6.00681 8.53599 5.98204L4.80499 3.74404ZM13.479 2.64404V1.27204C13.479 1.22392 13.4661 1.17667 13.4419 1.13511C13.4176 1.09355 13.3828 1.05917 13.3409 1.03548C13.299 1.01179 13.2516 0.999642 13.2035 1.00027C13.1553 1.00089 13.1082 1.01427 13.067 1.03904L9.33599 3.27804C9.29582 3.30223 9.26259 3.3364 9.23952 3.37723C9.21645 3.41805 9.20433 3.46415 9.20433 3.51104C9.20433 3.55793 9.21645 3.60403 9.23952 3.64485C9.26259 3.68568 9.29582 3.71985 9.33599 3.74404L13.067 5.98204C13.1082 6.00681 13.1553 6.02019 13.2035 6.02081C13.2516 6.02144 13.299 6.00929 13.3409 5.9856C13.3828 5.96191 13.4176 5.92753 13.4419 5.88597C13.4661 5.84441 13.479 5.79716 13.479 5.74904V4.68104C14.8384 4.9801 16.0856 5.65743 17.0767 6.63487C18.0677 7.61232 18.7622 8.85005 19.08 10.2052C19.3978 11.5604 19.326 12.9779 18.8728 14.294C18.4196 15.6101 17.6036 16.7713 16.5188 17.6436C15.434 18.5158 14.1247 19.0636 12.742 19.2237C11.3593 19.3838 9.95946 19.1496 8.70408 18.5483C7.44869 17.947 6.3889 17.003 5.64698 15.8253C4.90506 14.6475 4.51125 13.284 4.51099 11.892C4.51099 11.6268 4.40563 11.3725 4.21809 11.1849C4.03056 10.9974 3.7762 10.892 3.51099 10.892C3.24577 10.892 2.99142 10.9974 2.80388 11.1849C2.61634 11.3725 2.51099 11.6268 2.51099 11.892C2.51118 13.6798 3.02214 15.4302 3.98371 16.9373C4.94529 18.4444 6.31743 19.6454 7.93861 20.3989C9.55979 21.1524 11.3625 21.4271 13.1345 21.1905C14.9065 20.9539 16.574 20.216 17.9408 19.0636C19.3075 17.9112 20.3165 16.3923 20.8491 14.6857C21.3816 12.9792 21.4155 11.156 20.9467 9.4308C20.4779 7.70563 19.526 6.15031 18.203 4.94795C16.88 3.74559 15.241 2.94625 13.479 2.64404ZM11.871 14.555C11.114 14.555 10.606 14.174 10.562 13.578H9.15099C9.21399 14.911 10.299 15.78 11.89 15.78C13.481 15.78 14.644 14.906 14.644 13.671C14.644 12.729 14.048 12.104 13.067 11.962V11.87C13.824 11.685 14.361 11.123 14.366 10.268C14.371 9.23804 13.502 8.37304 11.939 8.37304C10.352 8.37304 9.35099 9.24704 9.30199 10.546H10.664C10.713 9.91604 11.152 9.55004 11.865 9.55004C12.554 9.55004 12.969 9.95004 12.969 10.478C12.969 11.054 12.515 11.45 11.846 11.45H10.967V12.529H11.861C12.652 12.529 13.14 12.915 13.14 13.54C13.14 14.15 12.618 14.555 11.871 14.555Z" fill="#828282"/>
</svg>
