<svg width="24" height="24" viewBox="0 0 24 24" fill="none" xmlns="http://www.w3.org/2000/svg">
<path d="M18.69 13.328L8.41 19.496C8.17505 19.6372 7.90684 19.7134 7.63279 19.7169C7.35874 19.7204 7.08867 19.651 6.85018 19.516C6.61169 19.3809 6.41334 19.185 6.27539 18.9481C6.13744 18.7113 6.06484 18.4421 6.065 18.168V5.83104C6.06484 5.55697 6.13744 5.28776 6.27539 5.05094C6.41334 4.81412 6.61169 4.61816 6.85018 4.4831C7.08867 4.34805 7.35874 4.27873 7.63279 4.28223C7.90684 4.28573 8.17505 4.36193 8.41 4.50304L18.691 10.672C18.9202 10.8098 19.1098 11.0045 19.2415 11.2373C19.3731 11.47 19.4422 11.7329 19.4421 12.0003C19.442 12.2677 19.3727 12.5306 19.2409 12.7632C19.1091 12.9959 18.9193 13.1905 18.69 13.328Z" fill="white"/>
</svg>
