<svg width="24" height="24" viewBox="0 0 24 24" fill="none" xmlns="http://www.w3.org/2000/svg">
<path d="M13.14 13.54C13.14 12.915 12.652 12.529 11.861 12.529H10.967V11.45H11.846C12.515 11.45 12.969 11.054 12.969 10.478C12.969 9.95104 12.554 9.55004 11.865 9.55004C11.152 9.55004 10.713 9.91604 10.664 10.546H9.30199C9.35099 9.24704 10.352 8.37304 11.939 8.37304C13.501 8.37304 14.371 9.23704 14.366 10.268C14.361 11.122 13.824 11.684 13.067 11.87V11.963C14.049 12.105 14.644 12.73 14.644 13.672C14.644 14.907 13.482 15.781 11.89 15.781C10.298 15.781 9.21399 14.912 9.15099 13.579H10.562C10.606 14.175 11.114 14.556 11.871 14.556C12.618 14.555 13.14 14.15 13.14 13.54ZM15.25 5.98204L18.981 3.74404C19.0212 3.71985 19.0544 3.68568 19.0775 3.64485C19.1005 3.60403 19.1126 3.55793 19.1126 3.51104C19.1126 3.46415 19.1005 3.41805 19.0775 3.37723C19.0544 3.3364 19.0212 3.30223 18.981 3.27804L15.25 1.03904C15.2087 1.01427 15.1616 1.00089 15.1135 1.00027C15.0654 0.999642 15.018 1.01179 14.9761 1.03548C14.9342 1.05917 14.8993 1.09355 14.8751 1.13511C14.8508 1.17667 14.838 1.22392 14.838 1.27204V5.74904C14.838 5.96004 15.068 6.09104 15.25 5.98204ZM20.275 10.893C20.0098 10.893 19.7554 10.9984 19.5679 11.1859C19.3803 11.3735 19.275 11.6278 19.275 11.893C19.2747 13.285 18.8809 14.6485 18.139 15.8263C17.3971 17.004 16.3373 17.948 15.0819 18.5493C13.8265 19.1506 12.4267 19.3848 11.044 19.2247C9.66125 19.0646 8.35196 18.5168 7.26719 17.6446C6.18241 16.7723 5.36635 15.6111 4.91317 14.295C4.45999 12.9789 4.38816 11.5614 4.70596 10.2062C5.02377 8.85105 5.71825 7.61332 6.70929 6.63587C7.70033 5.65843 8.94753 4.9811 10.307 4.68204V5.75004C10.307 5.96104 10.537 6.09204 10.719 5.98304L14.45 3.74504C14.4902 3.72085 14.5234 3.68668 14.5465 3.64585C14.5695 3.60503 14.5816 3.55893 14.5816 3.51204C14.5816 3.46515 14.5695 3.41905 14.5465 3.37823C14.5234 3.3374 14.4902 3.30323 14.45 3.27904L10.719 1.04104C10.6777 1.01627 10.6306 1.00289 10.5825 1.00227C10.5344 1.00164 10.487 1.01379 10.4451 1.03748C10.4032 1.06117 10.3683 1.09555 10.3441 1.13711C10.3198 1.17867 10.307 1.22592 10.307 1.27404V2.64604C5.88099 3.40004 2.51099 7.25404 2.51099 11.895C2.51099 14.3833 3.49944 16.7696 5.25891 18.5291C7.01838 20.2886 9.40473 21.277 11.893 21.277C14.3812 21.277 16.7676 20.2886 18.5271 18.5291C20.2865 16.7696 21.275 14.3833 21.275 11.895C21.2752 11.7636 21.2496 11.6333 21.1994 11.5117C21.1493 11.3902 21.0757 11.2797 20.9828 11.1866C20.8899 11.0936 20.7796 11.0197 20.6581 10.9694C20.5367 10.919 20.4065 10.893 20.275 10.893Z" fill="white"/>
</svg>
